<?xml version="1.0" encoding="UTF-8" standalone="no"?>
<!-- Created with Inkscape (http://www.inkscape.org/) -->

<svg
   xmlns:dc="http://purl.org/dc/elements/1.1/"
   xmlns:cc="http://creativecommons.org/ns#"
   xmlns:rdf="http://www.w3.org/1999/02/22-rdf-syntax-ns#"
   xmlns:svg="http://www.w3.org/2000/svg"
   xmlns="http://www.w3.org/2000/svg"
   xmlns:xlink="http://www.w3.org/1999/xlink"
   xmlns:sodipodi="http://sodipodi.sourceforge.net/DTD/sodipodi-0.dtd"
   xmlns:inkscape="http://www.inkscape.org/namespaces/inkscape"
   width="2979.9211"
   height="4212.9922"
   id="svg2"
   version="1.1"
   inkscape:version="0.48.2 r9819"
   sodipodi:docname="Manufacturing Process.pdf">
  <defs
     id="defs4">
    <marker
       inkscape:stockid="Arrow2Mend"
       orient="auto"
       refY="0.0"
       refX="0.0"
       id="Arrow2Mend"
       style="overflow:visible;">
      <path
         id="path6155"
         style="font-size:12.0;fill-rule:evenodd;stroke-width:0.62500000;stroke-linejoin:round;"
         d="M 8.7185878,4.0337352 L -2.2072895,0.016013256 L 8.7185884,-4.0017078 C 6.9730900,-1.6296469 6.9831476,1.6157441 8.7185878,4.0337352 z "
         transform="scale(0.6) rotate(180) translate(0,0)" />
    </marker>
    <marker
       inkscape:stockid="TriangleOutL"
       orient="auto"
       refY="0.0"
       refX="0.0"
       id="TriangleOutL"
       style="overflow:visible">
      <path
         id="path6271"
         d="M 5.77,0.0 L -2.88,5.0 L -2.88,-5.0 L 5.77,0.0 z "
         style="fill-rule:evenodd;stroke:#000000;stroke-width:1.0pt;marker-start:none"
         transform="scale(0.8)" />
    </marker>
    <marker
       inkscape:stockid="Arrow2Lend"
       orient="auto"
       refY="0.0"
       refX="0.0"
       id="Arrow2Lend"
       style="overflow:visible;">
      <path
         id="path6149"
         style="font-size:12.0;fill-rule:evenodd;stroke-width:0.62500000;stroke-linejoin:round;"
         d="M 8.7185878,4.0337352 L -2.2072895,0.016013256 L 8.7185884,-4.0017078 C 6.9730900,-1.6296469 6.9831476,1.6157441 8.7185878,4.0337352 z "
         transform="scale(1.1) rotate(180) translate(1,0)" />
    </marker>
    <marker
       inkscape:stockid="Arrow1Lend"
       orient="auto"
       refY="0.0"
       refX="0.0"
       id="Arrow1Lend"
       style="overflow:visible;">
      <path
         id="path6131"
         d="M 0.0,0.0 L 5.0,-5.0 L -12.5,0.0 L 5.0,5.0 L 0.0,0.0 z "
         style="fill-rule:evenodd;stroke:#000000;stroke-width:1.0pt;marker-start:none;"
         transform="scale(0.8) rotate(180) translate(12.5,0)" />
    </marker>
    <marker
       inkscape:stockid="Arrow1Lstart"
       orient="auto"
       refY="0.0"
       refX="0.0"
       id="Arrow1Lstart"
       style="overflow:visible">
      <path
         id="path6128"
         d="M 0.0,0.0 L 5.0,-5.0 L -12.5,0.0 L 5.0,5.0 L 0.0,0.0 z "
         style="fill-rule:evenodd;stroke:#000000;stroke-width:1.0pt;marker-start:none"
         transform="scale(0.8) translate(12.5,0)" />
    </marker>
    <pattern
       inkscape:collect="always"
       xlink:href="#pattern5916"
       id="pattern5939"
       patternTransform="matrix(0.74282678,0,0,0.74282678,1736.2204,-116.91127)" />
    <pattern
       inkscape:collect="always"
       xlink:href="#pattern5901"
       id="pattern5937"
       patternTransform="matrix(0.74282678,0,0,0.74282678,318.89771,-116.91124)" />
    <pattern
       inkscape:collect="always"
       xlink:href="#pattern5886"
       id="pattern5935"
       patternTransform="matrix(0.74282678,0,0,0.74282678,318.89762,-1073.6041)" />
    <pattern
       inkscape:collect="always"
       xlink:href="#pattern5879"
       id="pattern5933"
       patternTransform="matrix(0.74282678,0,0,0.74282678,1736.2205,-1073.6044)" />
    <pattern
       inkscape:collect="always"
       xlink:href="#pattern5849"
       id="pattern5931"
       patternTransform="matrix(0.74282678,0,0,0.74282678,1736.2205,-2030.2974)" />
    <pattern
       inkscape:collect="always"
       xlink:href="#pattern5864"
       id="pattern5882"
       patternTransform="translate(4.8632812e-5,-2.3632812e-6)" />
    <pattern
       inkscape:collect="always"
       xlink:href="#pattern5832"
       id="pattern5847"
       patternTransform="matrix(0.74282678,0,0,0.74282678,318.89768,-2035.3681)" />
    <filter
       inkscape:collect="always"
       id="filter4985">
      <feGaussianBlur
         inkscape:collect="always"
         stdDeviation="13.55315"
         id="feGaussianBlur4987" />
    </filter>
    <pattern
       patternUnits="userSpaceOnUse"
       width="1240.2082"
       height="885.78393"
       patternTransform="translate(-1738.3292,-2347.0908)"
       id="pattern5832">
      <rect
         inkscape:transform-center-y="442.91339"
         transform="matrix(1.0897611,0,0,1.0813467,1894.3413,2465.9396)"
         y="-2242.8955"
         x="-1700.7874"
         height="744.09454"
         width="1062.9921"
         id="rect4967"
         style="fill:#0055fa;fill-opacity:1;stroke:#ffffff;stroke-width:10;stroke-linejoin:round;stroke-miterlimit:4;stroke-opacity:1;stroke-dasharray:none;filter:url(#filter4985)" />
      <flowRoot
         inkscape:transform-center-y="402.23545"
         transform="matrix(1.4923515,0,0,1.4923515,-106.18418,-1693.1382)"
         style="font-size:40px;font-style:normal;font-weight:normal;line-height:125%;letter-spacing:0px;word-spacing:0px;fill:#ffffff;fill-opacity:1;stroke:none;display:inline;font-family:Sans"
         id="flowRoot4190"
         xml:space="preserve"><flowRegion
           id="flowRegion4192"><rect
             style="fill:#ffffff"
             y="1189.6605"
             x="120.67921"
             height="506.81094"
             width="743.3031"
             id="rect4194" /></flowRegion><flowPara
           style="font-size:69.92476654px;fill:#ffffff;font-family:ETH Light;-inkscape-font-specification:ETH Light"
           id="flowPara4196">1. Step</flowPara><flowPara
           id="flowPara4838"
           style="font-size:50.34583282px;fill:#ffffff;font-family:ETH Light;-inkscape-font-specification:ETH Light">Lorem ipsum dolor sit amet,</flowPara><flowPara
           id="flowPara4840"
           style="font-size:50.34583282px;fill:#ffffff;font-family:ETH Light;-inkscape-font-specification:ETH Light">consectetuer adipiscing elit.</flowPara><flowPara
           id="flowPara4842"
           style="font-size:50.34583282px;fill:#ffffff;font-family:ETH Light;-inkscape-font-specification:ETH Light">Aenean commodo ligula eget</flowPara><flowPara
           id="flowPara4846"
           style="font-size:50.34583282px;fill:#ffffff;font-family:ETH Light;-inkscape-font-specification:ETH Light">dolor. Aenean massa. Cum sociis</flowPara><flowPara
           id="flowPara4848"
           style="font-size:50.34583282px;fill:#ffffff;font-family:ETH Light;-inkscape-font-specification:ETH Light">natoque penatibus et magnis dis</flowPara><flowPara
           id="flowPara4854"
           style="font-size:50.34583282px;fill:#ffffff;font-family:ETH Light;-inkscape-font-specification:ETH Light">parturient montes. </flowPara></flowRoot>    </pattern>
    <pattern
       patternUnits="userSpaceOnUse"
       width="1240.2082"
       height="885.78393"
       patternTransform="translate(-1738.3292,-1419.7663)"
       id="pattern5849">
      <rect
         style="fill:#fab309;fill-opacity:1;stroke:#ffffff;stroke-width:10;stroke-linejoin:round;stroke-miterlimit:4;stroke-opacity:1;stroke-dasharray:none;filter:url(#filter4985)"
         id="rect5722"
         width="1062.9921"
         height="744.09454"
         x="-1700.7874"
         y="-2242.8955"
         transform="matrix(1.0897611,0,0,1.0813467,1894.3413,2465.9396)"
         inkscape:transform-center-y="442.91339" />
      <flowRoot
         xml:space="preserve"
         id="flowRoot5724"
         style="font-size:40px;font-style:normal;font-weight:normal;line-height:125%;letter-spacing:0px;word-spacing:0px;fill:#ffffff;fill-opacity:1;stroke:none;display:inline;font-family:Sans"
         transform="matrix(1.4923515,0,0,1.4923515,-106.18418,-1693.1383)"
         inkscape:transform-center-y="402.23545"><flowRegion
           id="flowRegion5726"><rect
             id="rect5728"
             width="743.3031"
             height="506.81094"
             x="120.67921"
             y="1189.6605"
             style="fill:#ffffff" /></flowRegion><flowPara
           id="flowPara5730"
           style="font-size:69.92476654px;fill:#ffffff;font-family:ETH Light;-inkscape-font-specification:ETH Light">2. Step</flowPara><flowPara
           style="font-size:50.34583282px;fill:#ffffff;font-family:ETH Light;-inkscape-font-specification:ETH Light"
           id="flowPara5732">Lorem ipsum dolor sit amet,</flowPara><flowPara
           style="font-size:50.34583282px;fill:#ffffff;font-family:ETH Light;-inkscape-font-specification:ETH Light"
           id="flowPara5734">consectetuer adipiscing elit.</flowPara><flowPara
           style="font-size:50.34583282px;fill:#ffffff;font-family:ETH Light;-inkscape-font-specification:ETH Light"
           id="flowPara5736">Aenean commodo ligula eget</flowPara><flowPara
           style="font-size:50.34583282px;fill:#ffffff;font-family:ETH Light;-inkscape-font-specification:ETH Light"
           id="flowPara5738">dolor. Aenean massa. Cum sociis</flowPara><flowPara
           style="font-size:50.34583282px;fill:#ffffff;font-family:ETH Light;-inkscape-font-specification:ETH Light"
           id="flowPara5740">natoque penatibus et magnis dis</flowPara><flowPara
           style="font-size:50.34583282px;fill:#ffffff;font-family:ETH Light;-inkscape-font-specification:ETH Light"
           id="flowPara5742">parturient montes. </flowPara></flowRoot>    </pattern>
    <pattern
       patternUnits="userSpaceOnUse"
       width="1240.2082"
       height="885.78393"
       patternTransform="translate(-1751.0323,-441.62958)"
       id="pattern5864">
      <rect
         inkscape:transform-center-y="442.91339"
         transform="matrix(1.0897611,0,0,1.0813467,1894.3413,2465.9396)"
         y="-2242.8955"
         x="-1700.7874"
         height="744.09454"
         width="1062.9921"
         id="rect5744"
         style="fill:#46e800;fill-opacity:1;stroke:#ffffff;stroke-width:10;stroke-linejoin:round;stroke-miterlimit:4;stroke-opacity:1;stroke-dasharray:none;filter:url(#filter4985)" />
      <flowRoot
         inkscape:transform-center-y="402.23545"
         transform="matrix(1.4923515,0,0,1.4923515,-106.18421,-1693.1383)"
         style="font-size:40px;font-style:normal;font-weight:normal;line-height:125%;letter-spacing:0px;word-spacing:0px;fill:#ffffff;fill-opacity:1;stroke:none;display:inline;font-family:Sans"
         id="flowRoot5746"
         xml:space="preserve"><flowRegion
           id="flowRegion5748"><rect
             style="fill:#ffffff"
             y="1189.6605"
             x="120.67921"
             height="506.81094"
             width="743.3031"
             id="rect5750" /></flowRegion><flowPara
           style="font-size:69.92476654px;fill:#ffffff;font-family:ETH Light;-inkscape-font-specification:ETH Light"
           id="flowPara5752">3. Step</flowPara><flowPara
           id="flowPara5754"
           style="font-size:50.34583282px;fill:#ffffff;font-family:ETH Light;-inkscape-font-specification:ETH Light">Lorem ipsum dolor sit amet,</flowPara><flowPara
           id="flowPara5756"
           style="font-size:50.34583282px;fill:#ffffff;font-family:ETH Light;-inkscape-font-specification:ETH Light">consectetuer adipiscing elit.</flowPara><flowPara
           id="flowPara5758"
           style="font-size:50.34583282px;fill:#ffffff;font-family:ETH Light;-inkscape-font-specification:ETH Light">Aenean commodo ligula eget</flowPara><flowPara
           id="flowPara5760"
           style="font-size:50.34583282px;fill:#ffffff;font-family:ETH Light;-inkscape-font-specification:ETH Light">dolor. Aenean massa. Cum sociis</flowPara><flowPara
           id="flowPara5762"
           style="font-size:50.34583282px;fill:#ffffff;font-family:ETH Light;-inkscape-font-specification:ETH Light">natoque penatibus et magnis dis</flowPara><flowPara
           id="flowPara5764"
           style="font-size:50.34583282px;fill:#ffffff;font-family:ETH Light;-inkscape-font-specification:ETH Light">parturient montes. </flowPara></flowRoot>    </pattern>
    <pattern
       patternUnits="userSpaceOnUse"
       width="1240.2083"
       height="885.78394"
       patternTransform="translate(-1751.0323,-441.62958)"
       id="pattern5879">
      <rect
         id="rect5877"
         y="0"
         x="0"
         height="885.78394"
         width="1240.2083"
         style="fill:url(#pattern5882);stroke:none" />
    </pattern>
    <pattern
       patternUnits="userSpaceOnUse"
       width="1240.2082"
       height="885.78393"
       patternTransform="translate(3114.2453,-2594.8007)"
       id="pattern5886">
      <rect
         style="fill:#fa0000;fill-opacity:1;stroke:#ffffff;stroke-width:10;stroke-linejoin:round;stroke-miterlimit:4;stroke-opacity:1;stroke-dasharray:none;filter:url(#filter4985)"
         id="rect5766"
         width="1062.9921"
         height="744.09454"
         x="-1700.7874"
         y="-2242.8955"
         transform="matrix(1.0897611,0,0,1.0813467,1894.3413,2465.9396)"
         inkscape:transform-center-y="442.91339" />
      <flowRoot
         xml:space="preserve"
         id="flowRoot5768"
         style="font-size:40px;font-style:normal;font-weight:normal;line-height:125%;letter-spacing:0px;word-spacing:0px;fill:#ffffff;fill-opacity:1;stroke:none;display:inline;font-family:Sans"
         transform="matrix(1.4923515,0,0,1.4923515,-106.18428,-1693.1383)"
         inkscape:transform-center-y="402.23545"><flowRegion
           id="flowRegion5770"><rect
             id="rect5772"
             width="743.3031"
             height="506.81094"
             x="120.67921"
             y="1189.6605"
             style="fill:#ffffff" /></flowRegion><flowPara
           id="flowPara5774"
           style="font-size:69.92476654px;fill:#ffffff;font-family:ETH Light;-inkscape-font-specification:ETH Light">4. Step</flowPara><flowPara
           style="font-size:50.34583282px;fill:#ffffff;font-family:ETH Light;-inkscape-font-specification:ETH Light"
           id="flowPara5776">Lorem ipsum dolor sit amet,</flowPara><flowPara
           style="font-size:50.34583282px;fill:#ffffff;font-family:ETH Light;-inkscape-font-specification:ETH Light"
           id="flowPara5778">consectetuer adipiscing elit.</flowPara><flowPara
           style="font-size:50.34583282px;fill:#ffffff;font-family:ETH Light;-inkscape-font-specification:ETH Light"
           id="flowPara5780">Aenean commodo ligula eget</flowPara><flowPara
           style="font-size:50.34583282px;fill:#ffffff;font-family:ETH Light;-inkscape-font-specification:ETH Light"
           id="flowPara5782">dolor. Aenean massa. Cum sociis</flowPara><flowPara
           style="font-size:50.34583282px;fill:#ffffff;font-family:ETH Light;-inkscape-font-specification:ETH Light"
           id="flowPara5784">natoque penatibus et magnis dis</flowPara><flowPara
           style="font-size:50.34583282px;fill:#ffffff;font-family:ETH Light;-inkscape-font-specification:ETH Light"
           id="flowPara5786">parturient montes. </flowPara></flowRoot>    </pattern>
    <pattern
       patternUnits="userSpaceOnUse"
       width="1240.2082"
       height="885.78393"
       patternTransform="translate(3146.003,-1635.7186)"
       id="pattern5901">
      <rect
         inkscape:transform-center-y="442.91339"
         transform="matrix(1.0897611,0,0,1.0813467,1894.3413,2465.9396)"
         y="-2242.8955"
         x="-1700.7874"
         height="744.09454"
         width="1062.9921"
         id="rect5788"
         style="fill:#002b5e;fill-opacity:1;stroke:#ffffff;stroke-width:10;stroke-linejoin:round;stroke-miterlimit:4;stroke-opacity:1;stroke-dasharray:none;filter:url(#filter4985)" />
      <flowRoot
         inkscape:transform-center-y="402.23545"
         transform="matrix(1.4923515,0,0,1.4923515,-106.18428,-1693.1383)"
         style="font-size:40px;font-style:normal;font-weight:normal;line-height:125%;letter-spacing:0px;word-spacing:0px;fill:#ffffff;fill-opacity:1;stroke:none;display:inline;font-family:Sans"
         id="flowRoot5790"
         xml:space="preserve"><flowRegion
           id="flowRegion5792"><rect
             style="fill:#ffffff"
             y="1189.6605"
             x="120.67921"
             height="506.81094"
             width="743.3031"
             id="rect5794" /></flowRegion><flowPara
           style="font-size:69.92476654px;fill:#ffffff;font-family:ETH Light;-inkscape-font-specification:ETH Light"
           id="flowPara5796">5. Step</flowPara><flowPara
           id="flowPara5798"
           style="font-size:50.34583282px;fill:#ffffff;font-family:ETH Light;-inkscape-font-specification:ETH Light">Lorem ipsum dolor sit amet,</flowPara><flowPara
           id="flowPara5800"
           style="font-size:50.34583282px;fill:#ffffff;font-family:ETH Light;-inkscape-font-specification:ETH Light">consectetuer adipiscing elit.</flowPara><flowPara
           id="flowPara5802"
           style="font-size:50.34583282px;fill:#ffffff;font-family:ETH Light;-inkscape-font-specification:ETH Light">Aenean commodo ligula eget</flowPara><flowPara
           id="flowPara5804"
           style="font-size:50.34583282px;fill:#ffffff;font-family:ETH Light;-inkscape-font-specification:ETH Light">dolor. Aenean massa. Cum sociis</flowPara><flowPara
           id="flowPara5806"
           style="font-size:50.34583282px;fill:#ffffff;font-family:ETH Light;-inkscape-font-specification:ETH Light">natoque penatibus et magnis dis</flowPara><flowPara
           id="flowPara5808"
           style="font-size:50.34583282px;fill:#ffffff;font-family:ETH Light;-inkscape-font-specification:ETH Light">parturient montes. </flowPara></flowRoot>    </pattern>
    <pattern
       patternUnits="userSpaceOnUse"
       width="1240.2082"
       height="885.78393"
       patternTransform="translate(3177.7607,-600.41798)"
       id="pattern5916">
      <rect
         style="fill:#ff6600;fill-opacity:1;stroke:#ffffff;stroke-width:10;stroke-linejoin:round;stroke-miterlimit:4;stroke-opacity:1;stroke-dasharray:none;filter:url(#filter4985)"
         id="rect5810"
         width="1062.9921"
         height="744.09454"
         x="-1700.7874"
         y="-2242.8955"
         transform="matrix(1.0897611,0,0,1.0813467,1894.3413,2465.9396)"
         inkscape:transform-center-y="442.91339" />
      <flowRoot
         xml:space="preserve"
         id="flowRoot5812"
         style="font-size:40px;font-style:normal;font-weight:normal;line-height:125%;letter-spacing:0px;word-spacing:0px;fill:#ffffff;fill-opacity:1;stroke:none;display:inline;font-family:Sans"
         transform="matrix(1.4923515,0,0,1.4923515,-106.18428,-1693.1383)"
         inkscape:transform-center-y="402.23545"><flowRegion
           id="flowRegion5814"><rect
             id="rect5816"
             width="743.3031"
             height="506.81094"
             x="120.67921"
             y="1189.6605"
             style="fill:#ffffff" /></flowRegion><flowPara
           id="flowPara5818"
           style="font-size:69.92476654px;fill:#ffffff;font-family:ETH Light;-inkscape-font-specification:ETH Light">6. Step</flowPara><flowPara
           style="font-size:50.34583282px;fill:#ffffff;font-family:ETH Light;-inkscape-font-specification:ETH Light"
           id="flowPara5820">Lorem ipsum dolor sit amet,</flowPara><flowPara
           style="font-size:50.34583282px;fill:#ffffff;font-family:ETH Light;-inkscape-font-specification:ETH Light"
           id="flowPara5822">consectetuer adipiscing elit.</flowPara><flowPara
           style="font-size:50.34583282px;fill:#ffffff;font-family:ETH Light;-inkscape-font-specification:ETH Light"
           id="flowPara5824">Aenean commodo ligula eget</flowPara><flowPara
           style="font-size:50.34583282px;fill:#ffffff;font-family:ETH Light;-inkscape-font-specification:ETH Light"
           id="flowPara5826">dolor. Aenean massa. Cum sociis</flowPara><flowPara
           style="font-size:50.34583282px;fill:#ffffff;font-family:ETH Light;-inkscape-font-specification:ETH Light"
           id="flowPara5828">natoque penatibus et magnis dis</flowPara><flowPara
           style="font-size:50.34583282px;fill:#ffffff;font-family:ETH Light;-inkscape-font-specification:ETH Light"
           id="flowPara5830">parturient montes. </flowPara></flowRoot>    </pattern>
  </defs>
  <sodipodi:namedview
     id="base"
     pagecolor="#000044"
     bordercolor="#666666"
     borderopacity="1.0"
     inkscape:pageopacity="0"
     inkscape:pageshadow="2"
     inkscape:zoom="0.1574422"
     inkscape:cx="1711.1095"
     inkscape:cy="1872.1477"
     inkscape:document-units="cm"
     inkscape:current-layer="layer4"
     showgrid="true"
     units="cm"
     inkscape:showpageshadow="false"
     borderlayer="true"
     showborder="true"
     showguides="true"
     inkscape:snap-from-guide="true"
     inkscape:window-width="1440"
     inkscape:window-height="848"
     inkscape:window-x="-8"
     inkscape:window-y="-8"
     inkscape:window-maximized="1"
     inkscape:guide-bbox="true">
    <sodipodi:guide
       orientation="1,0"
       position="2873.622,4106.6929"
       id="guide4806" />
    <sodipodi:guide
       orientation="1,0"
       position="106.29921,106.29921"
       id="guide4808" />
    <sodipodi:guide
       orientation="0,1"
       position="106.29921,4106.6929"
       id="guide4812" />
    <sodipodi:guide
       orientation="0,1"
       position="2873.622,106.29921"
       id="guide4814" />
    <inkscape:grid
       type="xygrid"
       id="grid4965"
       empspacing="3"
       visible="true"
       enabled="false"
       snapvisiblegridlinesonly="true"
       spacingx="0.5cm"
       spacingy="0.5cm"
       color="#00ff00"
       opacity="0.1254902"
       empcolor="#000000"
       empopacity="0.25098039"
       dotted="false"
       units="cm" />
  </sodipodi:namedview>
  <metadata
     id="metadata7">
    <rdf:RDF>
      <cc:Work
         rdf:about="">
        <dc:format>image/svg+xml</dc:format>
        <dc:type
           rdf:resource="http://purl.org/dc/dcmitype/StillImage" />
        <dc:title></dc:title>
      </cc:Work>
    </rdf:RDF>
  </metadata>
  <g
     inkscape:label="Poster"
     inkscape:groupmode="layer"
     id="layer1"
     transform="translate(0,3160.6121)"
     style="display:inline">
    <g
       inkscape:groupmode="layer"
       id="layer2"
       inkscape:label="Background"
       style="display:inline"
       sodipodi:insensitive="true">
      <rect
         style="fill:#a7bddb;fill-opacity:1;stroke:#000000;stroke-width:6.0489707;stroke-miterlimit:4;stroke-opacity:1;stroke-dasharray:none"
         id="rect3187"
         width="2973.8723"
         height="4206.9434"
         x="3.0244853"
         y="-3157.5876" />
    </g>
    <g
       inkscape:groupmode="layer"
       id="layer3"
       inkscape:label="ETH Template"
       style="display:inline"
       sodipodi:insensitive="true">
      <flowRoot
         xml:space="preserve"
         id="flowRoot4816"
         style="font-size:40px;font-style:normal;font-weight:normal;line-height:125%;letter-spacing:0px;word-spacing:0px;fill:#000000;fill-opacity:1;stroke:none;font-family:Sans"
         transform="matrix(1.0804364,0,0,1.0804364,-416.07702,-2288.026)"><flowRegion
           id="flowRegion4818"><rect
             id="rect4820"
             width="1530.7205"
             height="311.22531"
             x="482.71683"
             y="2771.1931" /></flowRegion><flowPara
           id="flowPara4822"
           style="font-size:48px;fill:#ffffff;font-family:ETH Light;-inkscape-font-specification:ETH Light">DEPARTEMENT OF ELECTRICAL ENGINEERING</flowPara><flowPara
           id="flowPara4828"
           style="font-size:48px;fill:#ffffff;font-family:ETH Light;-inkscape-font-specification:ETH Light">AND INFORMATION TECHNOLOGY</flowPara><flowPara
           id="flowPara4824"
           style="font-size:48px;fill:#ffffff;font-family:ETH Light;-inkscape-font-specification:ETH Light">Laboratory for Nanoelectronics</flowPara><flowPara
           id="flowPara4826"
           style="font-size:48px;fill:#ffffff;font-family:ETH Light;-inkscape-font-specification:ETH Light">Prof. Vanessa Wood</flowPara></flowRoot>      <flowRoot
         transform="translate(-97.125832,71.733622)"
         xml:space="preserve"
         id="flowRoot4182"
         style="font-size:40px;font-style:normal;font-weight:normal;line-height:125%;letter-spacing:0px;word-spacing:0px;fill:#000000;fill-opacity:1;stroke:none;display:inline;font-family:Sans"><flowRegion
           id="flowRegion4184"><rect
             id="rect4186"
             width="946.37903"
             height="527.17761"
             x="1009.8944"
             y="1202.3635" /></flowRegion><flowPara
           id="flowPara4188" /></flowRoot>      <flowRoot
         xml:space="preserve"
         id="flowRoot3720"
         style="font-size:40px;font-style:normal;font-weight:normal;line-height:125%;letter-spacing:0px;word-spacing:0px;fill:#000000;fill-opacity:1;stroke:none;font-family:Sans"
         transform="translate(-54.4405,-3732.2505)"><flowRegion
           id="flowRegion3722"><rect
             id="rect3724"
             width="2807.3794"
             height="336.63147"
             x="120.67921"
             y="954.65356" /></flowRegion><flowPara
           style="font-size:120px;text-align:end;text-anchor:end;fill:#ffffff;font-family:ETH Light;-inkscape-font-specification:ETH Light"
           id="flowPara4832">MANUFACTURING PROCESS OF QUANTUM DOTS</flowPara><flowPara
           style="font-size:120px;text-align:end;text-anchor:end;fill:#ffffff;font-family:ETH Light;-inkscape-font-specification:ETH Light"
           id="flowPara4836">&amp; PbS-BASED SOLAR CELLS </flowPara></flowRoot>      <g
         transform="matrix(5.1494417,0,0,-5.1494417,1961.8773,946.08088)"
         inkscape:label="ink_ext_XXXXXX"
         id="g3742">
        <g
           transform="scale(0.1,0.1)"
           id="g3744">
          <path
             id="path3746"
             style="fill:#ffffff;fill-opacity:1;fill-rule:nonzero;stroke:none"
             d="m 415.41,447.262 -13.344,-61.242 39.633,0 14.77,61.242 58.418,0 -37.785,-169.645 -58.903,0.035 13.621,65.153 -38.55,0 -15.743,-65.153 -60.695,0.039 28.031,125.555 -52.5,0.035 -28,-125.664 -62.414,0.035 27.938,125.629 -136.8128,0 -4.5586,-20.301 84.3324,0 -8.871,-39.96 -85.0629,0 -4.875,-21.282 88.2419,0 -9.843,-44.086 -150.79347,0 37.78907,169.61 375.9764,0"
             inkscape:connector-curvature="0" />
          <path
             id="path3748"
             style="fill:#ffffff;fill-opacity:1;fill-rule:nonzero;stroke:none"
             d="m 2.79688,135.891 0,57.312 30.21482,0 0,-7.781 -20.9961,0 0,-16.266 19.9766,0 0,-7.5 -19.9766,0 0,-17.828 20.9961,0 0,-7.937 -30.21482,0"
             inkscape:connector-curvature="0" />
          <path
             id="path3750"
             style="fill:#ffffff;fill-opacity:1;fill-rule:nonzero;stroke:none"
             d="m 58.1836,190.172 c 0,3.23 -2.6328,5.695 -5.7617,5.695 -3.2227,0 -5.8516,-2.547 -5.8516,-5.695 0,-3.145 2.6289,-5.695 5.8516,-5.695 3.1289,0 5.7617,2.55 5.7617,5.695 z m -1.2734,-54.289 0,42.297 -9.0625,0 0,-42.297 9.0625,0"
             inkscape:connector-curvature="0" />
          <path
             id="path3752"
             style="fill:#ffffff;fill-opacity:1;fill-rule:nonzero;stroke:none"
             d="m 97.9336,157.734 c 0,-7.269 -3.75,-15.308 -10.4844,-15.308 -5.7929,0 -8.4336,4.793 -8.4336,13.34 0,11.457 4.9375,15.906 12.1836,15.906 2.2188,0 4.4375,-0.258 6.7344,-0.77 l 0,-13.168 z m 9.0354,-21.937 0,62.101 -9.0354,0 0,-19.406 c -2.2969,0.168 -4.3438,0.336 -6.3906,0.336 -13.711,0 -22.0625,-9.297 -22.0625,-23.918 0,-12.312 5.1484,-19.965 15.5,-19.965 6.5625,0 11.5039,3.571 13.8086,8.766 l 0.164,0 c -0.4218,-2.387 -0.5937,-5.703 -0.5937,-7.914 l 8.6096,0"
             inkscape:connector-curvature="0" />
          <path
             id="path3754"
             style="fill:#ffffff;fill-opacity:1;fill-rule:nonzero;stroke:none"
             d="m 148.453,163.258 c 0,-5.508 -3.73,-8.649 -9.41,-8.649 -6.105,0 -9.496,3.223 -9.496,8.735 0,5.172 3.558,8.824 9.578,8.824 5.852,0 9.328,-3.313 9.328,-8.91 z m 11.723,-33.024 c 0,7.903 -5.18,12.204 -14.352,12.204 l -7.207,0 c -5.086,0 -6.953,0.863 -6.953,3.027 0,1.211 0.762,2.508 2.461,3.191 1.27,-0.254 3.219,-0.426 4.828,-0.426 11.875,0 18.25,6.465 18.25,15.622 0,3.05 -1.105,5.597 -2.887,7.039 l 6.454,0 0,7.156 -14.266,0 c -2.289,0.512 -4.41,0.855 -6.953,0.855 -12.035,0 -18.821,-7.5 -18.821,-16.406 0,-5.254 2.122,-9.586 6.274,-11.883 -2.965,-1.273 -4.832,-4.199 -4.832,-7.312 0,-2.805 1.613,-5 4.156,-6.266 -3.648,-1.855 -6.781,-5.863 -6.781,-10.633 0,-8.164 6.863,-12.402 17.887,-12.402 13.566,0 22.742,7.199 22.742,16.234 z m -9.004,-1.191 c 0,-4.602 -4.414,-8.012 -12.301,-8.012 -6.101,0 -10.34,2.559 -10.34,7.074 0,2.895 1.782,5.454 4.66,7.075 0.68,-0.086 1.528,-0.086 2.293,-0.086 l 7.879,0 c 5.344,0 7.809,-2.383 7.809,-6.051"
             inkscape:connector-curvature="0" />
          <path
             id="path3756"
             style="fill:#ffffff;fill-opacity:1;fill-rule:nonzero;stroke:none"
             d="m 196.52,162.891 -17.813,0 c 0.758,5.668 4.301,9.394 9.367,9.394 5.321,0 8.614,-3.637 8.446,-9.394 z m 9.062,-2.125 c 0,9.996 -5.168,18.234 -17.168,18.234 -12.258,0 -19.23,-9.508 -19.23,-22.227 0,-15.085 7.226,-21.824 20.328,-21.824 5.144,0 10.308,0.93 14.543,2.696 l -0.848,7.226 c -3.473,-1.726 -7.957,-2.762 -12.262,-2.762 -8.355,0 -12.664,4.489 -12.41,14.407 l 26.793,0 c 0.164,1.613 0.254,3.058 0.254,4.25"
             inkscape:connector-curvature="0" />
          <path
             id="path3758"
             style="fill:#ffffff;fill-opacity:1;fill-rule:nonzero;stroke:none"
             d="m 245.027,135.883 0,27.265 c 0,5.286 -1.433,8.352 -6.238,8.352 -6.324,0 -10.961,-6.734 -10.961,-15.168 l 0,-20.449 -9.062,0 0,42.277 8.636,0 c 0,-2.191 -0.168,-5.816 -0.589,-8.195 l 0.082,-0.082 c 2.453,5.41 7.507,9.117 14.593,9.117 9.59,0 12.575,-5.98 12.575,-13.465 l 0,-29.652 -9.036,0"
             inkscape:connector-curvature="0" />
          <path
             id="path3760"
             style="fill:#ffffff;fill-opacity:1;fill-rule:nonzero;stroke:none"
             d="m 283.77,191.23 c 0,2.809 -2.301,5.102 -5.184,5.102 -2.895,0 -5.106,-2.293 -5.106,-5.102 0,-2.89 2.211,-5.183 5.106,-5.183 2.883,0 5.184,2.293 5.184,5.183 z m 16.562,0 c 0,2.809 -2.297,5.102 -5.102,5.102 -2.89,0 -5.187,-2.293 -5.187,-5.102 0,-2.89 2.297,-5.183 5.187,-5.183 2.805,0 5.102,2.293 5.102,5.183 z m 6.563,-33.375 c 0,14.977 -7.989,21.145 -19.29,21.145 -12.816,0 -21.007,-9.645 -21.007,-22.516 0,-15.007 7.601,-21.546 19.308,-21.546 12.492,0 20.989,9.789 20.989,22.917 z m -9.352,-0.597 c 0,-9.875 -4.926,-14.508 -10.785,-14.508 -7.051,0 -10.785,5.063 -10.785,14.676 0,9.781 5.351,14.074 10.867,14.074 7.223,0 10.703,-5.148 10.703,-14.242"
             inkscape:connector-curvature="0" />
          <path
             id="path3762"
             style="fill:#ffffff;fill-opacity:1;fill-rule:nonzero;stroke:none"
             d="m 326.465,134.949 c -3.145,0 -6.289,0.34 -8.926,0.848 l 0.254,7.68 c 2.637,-0.766 5.953,-1.368 9.187,-1.368 4.958,0 8.379,2.133 8.379,5.633 0,8.535 -18.586,3.414 -18.586,18.098 0,7.34 5.954,13.144 17.473,13.144 2.473,0 5.363,-0.339 7.918,-0.765 l -0.262,-7.434 c -2.547,0.774 -5.519,1.195 -8.25,1.195 -5.05,0 -7.531,-2.042 -7.531,-5.285 0,-8.199 18.762,-4.015 18.762,-18.097 0,-7.918 -7.055,-13.649 -18.418,-13.649"
             inkscape:connector-curvature="0" />
          <path
             id="path3764"
             style="fill:#ffffff;fill-opacity:1;fill-rule:nonzero;stroke:none"
             d="m 364.973,134.949 c -3.153,0 -6.297,0.34 -8.926,0.848 l 0.254,7.68 c 2.629,-0.766 5.945,-1.368 9.183,-1.368 4.961,0 8.383,2.133 8.383,5.633 0,8.535 -18.59,3.414 -18.59,18.098 0,7.34 5.953,13.144 17.477,13.144 2.473,0 5.359,-0.339 7.91,-0.765 l -0.254,-7.434 c -2.551,0.774 -5.527,1.195 -8.258,1.195 -5.043,0 -7.523,-2.042 -7.523,-5.285 0,-8.199 18.754,-4.015 18.754,-18.097 0,-7.918 -7.055,-13.649 -18.41,-13.649"
             inkscape:connector-curvature="0" />
          <path
             id="path3766"
             style="fill:#ffffff;fill-opacity:1;fill-rule:nonzero;stroke:none"
             d="m 401.156,184.477 c -3.218,0 -5.847,2.55 -5.847,5.695 0,3.148 2.629,5.695 5.847,5.695 3.137,0 5.762,-2.465 5.762,-5.695 0,-3.145 -2.625,-5.695 -5.762,-5.695 z m -4.574,-48.594 0,42.297 9.063,0 0,-42.297 -9.063,0"
             inkscape:connector-curvature="0" />
          <path
             id="path3768"
             style="fill:#ffffff;fill-opacity:1;fill-rule:nonzero;stroke:none"
             d="m 428.551,134.949 c -3.153,0 -6.293,0.34 -8.934,0.848 l 0.262,7.68 c 2.633,-0.766 5.945,-1.368 9.184,-1.368 4.96,0 8.378,2.133 8.378,5.633 0,8.535 -18.586,3.414 -18.586,18.098 0,7.34 5.95,13.144 17.477,13.144 2.473,0 5.363,-0.339 7.91,-0.765 l -0.254,-7.434 c -2.547,0.774 -5.527,1.195 -8.258,1.195 -5.042,0 -7.523,-2.042 -7.523,-5.285 0,-8.199 18.758,-4.015 18.758,-18.097 0,-7.918 -7.059,-13.649 -18.414,-13.649"
             inkscape:connector-curvature="0" />
          <path
             id="path3770"
             style="fill:#ffffff;fill-opacity:1;fill-rule:nonzero;stroke:none"
             d="m 475.512,135.094 c -10.879,0 -18.785,5.351 -18.785,20.492 0,13.531 6.886,23.258 21.421,23.258 3.145,0 6.372,-0.422 9.18,-1.266 l -0.933,-7.859 c -2.551,0.941 -5.442,1.625 -8.5,1.625 -7.739,0 -11.645,-5.739 -11.645,-14.735 0,-7.793 2.805,-13.703 11.215,-13.703 3.234,0 6.719,0.77 9.183,2.055 l 0.762,-7.742 c -2.801,-1.106 -7.219,-2.125 -11.898,-2.125"
             inkscape:connector-curvature="0" />
          <path
             id="path3772"
             style="fill:#ffffff;fill-opacity:1;fill-rule:nonzero;stroke:none"
             d="m 525.781,135.883 0,27.265 c 0,5.286 -1.433,8.352 -6.242,8.352 -6.324,0 -10.961,-6.734 -10.961,-15.254 l 0,-20.363 -9.062,0 0,62.015 9.062,0 0,-19.066 c 0,-2.609 -0.172,-6.152 -0.762,-8.441 l 0.168,-0.082 c 2.45,5.238 7.426,8.691 14.25,8.691 9.598,0 12.579,-5.98 12.579,-13.465 l 0,-29.652 -9.032,0"
             inkscape:connector-curvature="0" />
          <path
             id="path3774"
             style="fill:#ffffff;fill-opacity:1;fill-rule:nonzero;stroke:none"
             d="m 574.844,162.891 -17.809,0 c 0.758,5.668 4.305,9.394 9.371,9.394 5.317,0 8.61,-3.637 8.438,-9.394 z m 9.062,-2.125 c 0,9.996 -5.168,18.234 -17.164,18.234 -12.254,0 -19.226,-9.508 -19.226,-22.227 0,-15.085 7.226,-21.824 20.32,-21.824 5.152,0 10.312,0.93 14.547,2.696 l -0.844,7.226 c -3.473,-1.726 -7.961,-2.762 -12.266,-2.762 -8.355,0 -12.664,4.489 -12.41,14.407 l 26.789,0 c 0.172,1.613 0.254,3.058 0.254,4.25"
             inkscape:connector-curvature="0" />
          <path
             id="path3776"
             style="fill:#ffffff;fill-opacity:1;fill-rule:nonzero;stroke:none"
             d="m 634.957,185.406 0,-49.523 -9.215,0 0,49.523 -15.726,0 0,7.813 40.754,0 0,-7.813 -15.813,0"
             inkscape:connector-curvature="0" />
          <path
             id="path3778"
             style="fill:#ffffff;fill-opacity:1;fill-rule:nonzero;stroke:none"
             d="m 678.262,162.891 -17.813,0 c 0.758,5.668 4.309,9.394 9.371,9.394 5.317,0 8.61,-3.637 8.442,-9.394 z m 9.062,-2.125 c 0,9.996 -5.168,18.234 -17.168,18.234 -12.258,0 -19.226,-9.508 -19.226,-22.227 0,-15.085 7.222,-21.824 20.324,-21.824 5.152,0 10.309,0.93 14.547,2.696 l -0.852,7.226 c -3.469,-1.726 -7.957,-2.762 -12.258,-2.762 -8.359,0 -12.668,4.489 -12.414,14.407 l 26.793,0 c 0.164,1.613 0.254,3.058 0.254,4.25"
             inkscape:connector-curvature="0" />
          <path
             id="path3780"
             style="fill:#ffffff;fill-opacity:1;fill-rule:nonzero;stroke:none"
             d="m 715.863,135.094 c -10.883,0 -18.789,5.351 -18.789,20.492 0,13.531 6.887,23.258 21.422,23.258 3.145,0 6.375,-0.422 9.18,-1.266 l -0.934,-7.859 c -2.547,0.941 -5.437,1.625 -8.5,1.625 -7.734,0 -11.644,-5.739 -11.644,-14.735 0,-7.793 2.804,-13.703 11.218,-13.703 3.231,0 6.715,0.77 9.18,2.055 l 0.77,-7.742 c -2.809,-1.106 -7.231,-2.125 -11.903,-2.125"
             inkscape:connector-curvature="0" />
          <path
             id="path3782"
             style="fill:#ffffff;fill-opacity:1;fill-rule:nonzero;stroke:none"
             d="m 766.129,135.883 0,27.265 c 0,5.286 -1.438,8.352 -6.242,8.352 -6.324,0 -10.961,-6.734 -10.961,-15.254 l 0,-20.363 -9.063,0 0,62.015 9.063,0 0,-19.066 c 0,-2.609 -0.172,-6.152 -0.762,-8.441 l 0.172,-0.082 c 2.445,5.238 7.422,8.691 14.254,8.691 9.59,0 12.57,-5.98 12.57,-13.465 l 0,-29.652 -9.031,0"
             inkscape:connector-curvature="0" />
          <path
             id="path3784"
             style="fill:#ffffff;fill-opacity:1;fill-rule:nonzero;stroke:none"
             d="m 817.555,135.883 0,27.265 c 0,5.286 -1.438,8.352 -6.242,8.352 -6.325,0 -10.961,-6.734 -10.961,-15.168 l 0,-20.449 -9.063,0 0,42.277 8.637,0 c 0,-2.191 -0.168,-5.816 -0.59,-8.195 l 0.082,-0.082 c 2.453,5.41 7.512,9.117 14.59,9.117 9.594,0 12.578,-5.98 12.578,-13.465 l 0,-29.652 -9.031,0"
             inkscape:connector-curvature="0" />
          <path
             id="path3786"
             style="fill:#ffffff;fill-opacity:1;fill-rule:nonzero;stroke:none"
             d="m 853.051,190.172 c 0,3.23 -2.629,5.695 -5.766,5.695 -3.219,0 -5.844,-2.547 -5.844,-5.695 0,-3.145 2.625,-5.695 5.844,-5.695 3.137,0 5.766,2.55 5.766,5.695 z m -1.274,-54.289 0,42.297 -9.062,0 0,-42.297 9.062,0"
             inkscape:connector-curvature="0" />
          <path
             id="path3788"
             style="fill:#ffffff;fill-opacity:1;fill-rule:nonzero;stroke:none"
             d="m 874.68,134.949 c -3.149,0 -6.297,0.34 -8.926,0.848 l 0.254,7.68 c 2.633,-0.766 5.949,-1.368 9.183,-1.368 4.961,0 8.383,2.133 8.383,5.633 0,8.535 -18.59,3.414 -18.59,18.098 0,7.34 5.954,13.144 17.477,13.144 2.473,0 5.359,-0.339 7.91,-0.765 l -0.254,-7.434 c -2.551,0.774 -5.523,1.195 -8.258,1.195 -5.043,0 -7.523,-2.042 -7.523,-5.285 0,-8.199 18.754,-4.015 18.754,-18.097 0,-7.918 -7.051,-13.649 -18.41,-13.649"
             inkscape:connector-curvature="0" />
          <path
             id="path3790"
             style="fill:#ffffff;fill-opacity:1;fill-rule:nonzero;stroke:none"
             d="m 921.645,135.094 c -10.883,0 -18.786,5.351 -18.786,20.492 0,13.531 6.887,23.258 21.418,23.258 3.145,0 6.375,-0.422 9.18,-1.266 l -0.934,-7.859 c -2.546,0.941 -5.437,1.625 -8.5,1.625 -7.734,0 -11.644,-5.739 -11.644,-14.735 0,-7.793 2.805,-13.703 11.219,-13.703 3.234,0 6.715,0.77 9.179,2.055 l 0.77,-7.742 c -2.809,-1.106 -7.231,-2.125 -11.902,-2.125"
             inkscape:connector-curvature="0" />
          <path
             id="path3792"
             style="fill:#ffffff;fill-opacity:1;fill-rule:nonzero;stroke:none"
             d="m 971.91,135.883 0,27.265 c 0,5.286 -1.437,8.352 -6.242,8.352 -6.32,0 -10.961,-6.734 -10.961,-15.254 l 0,-20.363 -9.062,0 0,62.015 9.062,0 0,-19.066 c 0,-2.609 -0.172,-6.152 -0.762,-8.441 l 0.172,-0.082 c 2.446,5.238 7.422,8.691 14.25,8.691 9.594,0 12.574,-5.98 12.574,-13.465 l 0,-29.652 -9.031,0"
             inkscape:connector-curvature="0" />
          <path
             id="path3794"
             style="fill:#ffffff;fill-opacity:1;fill-rule:nonzero;stroke:none"
             d="m 1020.98,162.891 -17.82,0 c 0.77,5.668 4.31,9.394 9.38,9.394 5.31,0 8.61,-3.637 8.44,-9.394 z m 9.06,-2.125 c 0,9.996 -5.16,18.234 -17.17,18.234 -12.26,0 -19.222,-9.508 -19.222,-22.227 0,-15.085 7.222,-21.824 20.322,-21.824 5.15,0 10.31,0.93 14.55,2.696 l -0.85,7.226 c -3.47,-1.726 -7.96,-2.762 -12.26,-2.762 -8.36,0 -12.67,4.489 -12.42,14.407 l 26.8,0 c 0.17,1.613 0.25,3.058 0.25,4.25"
             inkscape:connector-curvature="0" />
          <path
             id="path3796"
             style="fill:#ffffff;fill-opacity:1;fill-rule:nonzero;stroke:none"
             d="m 1100.88,135.883 0,25.789 -27.19,0 0,-25.789 -9.22,0 0,57.324 9.22,0 0,-23.598 27.19,0 0,23.598 9.06,0 0,-57.324 -9.06,0"
             inkscape:connector-curvature="0" />
          <path
             id="path3798"
             style="fill:#ffffff;fill-opacity:1;fill-rule:nonzero;stroke:none"
             d="m 1153.45,157.258 c 0,-9.875 -4.93,-14.508 -10.78,-14.508 -7.06,0 -10.79,5.063 -10.79,14.676 0,9.781 5.35,14.074 10.87,14.074 7.22,0 10.7,-5.148 10.7,-14.242 z m 9.35,0.597 c 0,14.977 -7.99,21.145 -19.28,21.145 -12.82,0 -21.02,-9.645 -21.02,-22.516 0,-15.007 7.6,-21.546 19.32,-21.546 12.48,0 20.98,9.789 20.98,22.917"
             inkscape:connector-curvature="0" />
          <path
             id="path3800"
             style="fill:#ffffff;fill-opacity:1;fill-rule:nonzero;stroke:none"
             d="m 1190.84,135.094 c -10.88,0 -18.79,5.351 -18.79,20.492 0,13.531 6.88,23.258 21.42,23.258 3.15,0 6.37,-0.422 9.18,-1.266 l -0.94,-7.859 c -2.55,0.941 -5.44,1.625 -8.5,1.625 -7.73,0 -11.64,-5.739 -11.64,-14.735 0,-7.793 2.81,-13.703 11.22,-13.703 3.23,0 6.72,0.77 9.18,2.055 l 0.76,-7.742 c -2.8,-1.106 -7.22,-2.125 -11.89,-2.125"
             inkscape:connector-curvature="0" />
          <path
             id="path3802"
             style="fill:#ffffff;fill-opacity:1;fill-rule:nonzero;stroke:none"
             d="m 1241.1,135.883 0,27.265 c 0,5.286 -1.43,8.352 -6.24,8.352 -6.32,0 -10.96,-6.734 -10.96,-15.254 l 0,-20.363 -9.06,0 0,62.015 9.06,0 0,-19.066 c 0,-2.609 -0.17,-6.152 -0.76,-8.441 l 0.16,-0.082 c 2.45,5.238 7.43,8.691 14.26,8.691 9.59,0 12.57,-5.98 12.57,-13.465 l 0,-29.652 -9.03,0"
             inkscape:connector-curvature="0" />
          <path
             id="path3804"
             style="fill:#ffffff;fill-opacity:1;fill-rule:nonzero;stroke:none"
             d="m 1273.15,134.949 c -3.15,0 -6.29,0.34 -8.93,0.848 l 0.26,7.68 c 2.63,-0.766 5.95,-1.368 9.19,-1.368 4.96,0 8.38,2.133 8.38,5.633 0,8.535 -18.59,3.414 -18.59,18.098 0,7.34 5.95,13.144 17.48,13.144 2.47,0 5.36,-0.339 7.91,-0.765 l -0.26,-7.434 c -2.54,0.774 -5.52,1.195 -8.25,1.195 -5.05,0 -7.53,-2.042 -7.53,-5.285 0,-8.199 18.76,-4.015 18.76,-18.097 0,-7.918 -7.06,-13.649 -18.42,-13.649"
             inkscape:connector-curvature="0" />
          <path
             id="path3806"
             style="fill:#ffffff;fill-opacity:1;fill-rule:nonzero;stroke:none"
             d="m 1320.12,135.094 c -10.88,0 -18.79,5.351 -18.79,20.492 0,13.531 6.89,23.258 21.42,23.258 3.15,0 6.38,-0.422 9.18,-1.266 l -0.93,-7.859 c -2.55,0.941 -5.44,1.625 -8.5,1.625 -7.74,0 -11.64,-5.739 -11.64,-14.735 0,-7.793 2.8,-13.703 11.21,-13.703 3.23,0 6.72,0.77 9.18,2.055 l 0.77,-7.742 c -2.81,-1.106 -7.22,-2.125 -11.9,-2.125"
             inkscape:connector-curvature="0" />
          <path
             id="path3808"
             style="fill:#ffffff;fill-opacity:1;fill-rule:nonzero;stroke:none"
             d="m 1370.39,135.883 0,27.265 c 0,5.286 -1.44,8.352 -6.25,8.352 -6.32,0 -10.96,-6.734 -10.96,-15.254 l 0,-20.363 -9.06,0 0,62.015 9.06,0 0,-19.066 c 0,-2.609 -0.17,-6.152 -0.76,-8.441 l 0.17,-0.082 c 2.45,5.238 7.43,8.691 14.25,8.691 9.59,0 12.58,-5.98 12.58,-13.465 l 0,-29.652 -9.03,0"
             inkscape:connector-curvature="0" />
          <path
             id="path3810"
             style="fill:#ffffff;fill-opacity:1;fill-rule:nonzero;stroke:none"
             d="m 1422.22,135.781 c 0,2.192 0.17,5.817 0.59,8.188 l -0.08,0.09 c -2.46,-5.411 -7.57,-9.121 -14.72,-9.121 -9.63,0 -12.6,5.984 -12.6,13.464 l 0,29.649 9.03,0 0,-27.262 c 0,-5.281 1.44,-8.351 6.29,-8.351 6.38,0 11.07,6.734 11.07,15.167 l 0,20.446 9.06,0 0,-42.27 -8.64,0"
             inkscape:connector-curvature="0" />
          <path
             id="path3812"
             style="fill:#ffffff;fill-opacity:1;fill-rule:nonzero;stroke:none"
             d="m 1446.97,135.883 9.0625,0 0,62.0156 -9.0625,0 0,-62.0156 z"
             inkscape:connector-curvature="0" />
          <path
             id="path3814"
             style="fill:#ffffff;fill-opacity:1;fill-rule:nonzero;stroke:none"
             d="m 1495.95,162.891 -17.81,0 c 0.75,5.668 4.3,9.394 9.36,9.394 5.33,0 8.62,-3.637 8.45,-9.394 z m 9.06,-2.125 c 0,9.996 -5.17,18.234 -17.16,18.234 -12.26,0 -19.23,-9.508 -19.23,-22.227 0,-15.085 7.22,-21.824 20.32,-21.824 5.15,0 10.31,0.93 14.54,2.696 l -0.84,7.226 c -3.47,-1.726 -7.96,-2.762 -12.26,-2.762 -8.36,0 -12.67,4.489 -12.41,14.407 l 26.79,0 c 0.17,1.613 0.25,3.058 0.25,4.25"
             inkscape:connector-curvature="0" />
          <path
             id="path3816"
             style="fill:#ffffff;fill-opacity:1;fill-rule:nonzero;stroke:none"
             d="m 1536.63,135.875 0,7.008 22.59,35.945 c 1.35,2.211 2.72,4.168 4.24,6.211 -2.46,-0.09 -5.77,-0.09 -11.63,-0.09 l -14.35,0 0,8.254 36.94,0 0,-7.312 -23.78,-37.157 c -0.93,-1.617 -1.87,-2.976 -2.97,-4.589 1.53,0.168 6.12,0.168 13.42,0.168 l 13.67,0 0,-8.438 -38.13,0"
             inkscape:connector-curvature="0" />
          <path
             id="path3818"
             style="fill:#ffffff;fill-opacity:1;fill-rule:nonzero;stroke:none"
             d="m 1617.17,191.23 c 0,2.809 -2.29,5.102 -5.1,5.102 -2.89,0 -5.18,-2.293 -5.18,-5.102 0,-2.89 2.29,-5.183 5.18,-5.183 2.81,0 5.1,2.293 5.1,5.183 z m -16.56,0 c 0,2.809 -2.29,5.102 -5.18,5.102 -2.89,0 -5.1,-2.293 -5.1,-5.102 0,-2.89 2.21,-5.183 5.1,-5.183 2.89,0 5.18,2.293 5.18,5.183 z m 21.23,-55.449 0,42.27 -9.07,0 0,-20.446 c 0,-8.433 -4.67,-15.167 -11.06,-15.167 -4.85,0 -6.3,3.07 -6.3,8.351 l 0,27.262 -9.03,0 0,-29.649 c 0,-7.48 2.98,-13.464 12.61,-13.464 7.15,0 12.26,3.71 14.72,9.121 l 0.08,-0.09 c -0.42,-2.371 -0.59,-5.996 -0.59,-8.188 l 8.64,0"
             inkscape:connector-curvature="0" />
          <path
             id="path3820"
             style="fill:#ffffff;fill-opacity:1;fill-rule:nonzero;stroke:none"
             d="m 1659.51,170.094 c -8.42,1.527 -12.5,-4.34 -12.5,-17.02 l 0,-17.191 -9.06,0 0,42.269 8.64,0 c 0,-2.375 -0.26,-6.105 -0.85,-9.336 l 0.17,0 c 1.87,5.692 6.12,10.95 14.02,10.184 l -0.42,-8.906"
             inkscape:connector-curvature="0" />
          <path
             id="path3822"
             style="fill:#ffffff;fill-opacity:1;fill-rule:nonzero;stroke:none"
             d="m 1675.42,184.477 c -3.22,0 -5.85,2.55 -5.85,5.695 0,3.148 2.63,5.695 5.85,5.695 3.13,0 5.76,-2.465 5.76,-5.695 0,-3.145 -2.63,-5.695 -5.76,-5.695 z m -4.58,-48.594 0,42.297 9.07,0 0,-42.297 -9.07,0"
             inkscape:connector-curvature="0" />
          <path
             id="path3824"
             style="fill:#ffffff;fill-opacity:1;fill-rule:nonzero;stroke:none"
             d="m 1711.27,135.094 c -10.88,0 -18.79,5.351 -18.79,20.492 0,13.531 6.89,23.258 21.43,23.258 3.14,0 6.37,-0.422 9.18,-1.266 l -0.94,-7.859 c -2.54,0.941 -5.44,1.625 -8.5,1.625 -7.73,0 -11.64,-5.739 -11.64,-14.735 0,-7.793 2.8,-13.703 11.22,-13.703 3.22,0 6.71,0.77 9.18,2.055 l 0.77,-7.742 c -2.81,-1.106 -7.23,-2.125 -11.91,-2.125"
             inkscape:connector-curvature="0" />
          <path
             id="path3826"
             style="fill:#ffffff;fill-opacity:1;fill-rule:nonzero;stroke:none"
             d="m 1761.54,135.883 0,27.265 c 0,5.286 -1.44,8.352 -6.24,8.352 -6.32,0 -10.96,-6.734 -10.96,-15.254 l 0,-20.363 -9.07,0 0,62.015 9.07,0 0,-19.066 c 0,-2.609 -0.18,-6.152 -0.77,-8.441 l 0.18,-0.082 c 2.44,5.238 7.42,8.691 14.25,8.691 9.59,0 12.57,-5.98 12.57,-13.465 l 0,-29.652 -9.03,0"
             inkscape:connector-curvature="0" />
          <path
             id="path3828"
             style="fill:#ffffff;fill-opacity:1;fill-rule:nonzero;stroke:none"
             d="m 12.8516,20.9375 c -4.14457,0 -8.24222,0.5078 -11.57426,1.3594 l 0.51563,8.75 C 5.03516,29.8477 9.55469,28.9063 13.6953,28.9063 19.9375,28.9063 25,31.5625 25,37.8125 25,49.9648 0,44.8281 0,63.4961 c 0,9.9102 7.76563,16.6602 21.0352,16.6602 3.375,0 6.8632,-0.4141 10.3671,-1 l -0.5117,-8.125 c -3.332,1.0234 -6.9883,1.625 -10.3633,1.625 -7.0859,0 -10.7148,-3.3399 -10.7148,-8.1368 0,-11.5547 25,-7.2734 25,-25.3398 0,-10.6094 -8.3633,-18.2422 -21.9609,-18.2422"
             inkscape:connector-curvature="0" />
          <path
             id="path3830"
             style="fill:#ffffff;fill-opacity:1;fill-rule:nonzero;stroke:none"
             d="m 93.1445,21.8867 -10.0351,0 -7.3086,22.0586 c -0.9336,2.7969 -1.6992,5.6836 -2.4649,8.9063 l -0.082,0 C 72.4023,49.1211 71.4648,45.8125 70.3594,42.2461 l -6.375,-20.3594 -9.6055,0 -13,42.168 9.9375,0 5.6133,-19.6016 c 1.1055,-3.9843 2.293,-7.9726 3.1484,-11.7929 l 0.0821,0 c 0.8515,4.1601 1.8711,7.8906 2.9765,11.539 l 6.2891,19.8555 9.1836,0 6.3711,-19.5156 c 1.6172,-5.0899 2.4648,-8.2305 3.3164,-11.8789 l 0.0859,0 c 0.8516,3.9062 1.6992,7.2109 2.9727,11.457 l 5.8672,19.9375 9.4373,0 -13.5155,-42.168"
             inkscape:connector-curvature="0" />
          <path
             id="path3832"
             style="fill:#ffffff;fill-opacity:1;fill-rule:nonzero;stroke:none"
             d="m 121.766,70.4805 c -3.215,0 -5.848,2.5468 -5.848,5.6914 0,3.1445 2.633,5.6992 5.848,5.6992 3.136,0 5.769,-2.4688 5.769,-5.6992 0,-3.1446 -2.633,-5.6914 -5.769,-5.6914 z m -4.575,-48.5938 0,42.293 9.063,0 0,-42.293 -9.063,0"
             inkscape:connector-curvature="0" />
          <path
             id="path3834"
             style="fill:#ffffff;fill-opacity:1;fill-rule:nonzero;stroke:none"
             d="m 149.16,20.9531 c -3.148,0 -6.293,0.336 -8.926,0.8438 l 0.254,7.6797 c 2.637,-0.7657 5.953,-1.3672 9.184,-1.3672 4.961,0 8.387,2.1328 8.387,5.6367 0,8.5352 -18.59,3.4102 -18.59,18.0898 0,7.3438 5.953,13.1485 17.472,13.1485 2.473,0 5.364,-0.3399 7.911,-0.7656 l -0.25,-7.4336 c -2.551,0.7734 -5.524,1.1992 -8.258,1.1992 -5.043,0 -7.528,-2.0508 -7.528,-5.293 0,-8.1953 18.758,-4.0078 18.758,-18.0898 0,-7.9219 -7.051,-13.6485 -18.414,-13.6485"
             inkscape:connector-curvature="0" />
          <path
             id="path3836"
             style="fill:#ffffff;fill-opacity:1;fill-rule:nonzero;stroke:none"
             d="m 187.664,20.9531 c -3.148,0 -6.293,0.336 -8.93,0.8438 l 0.258,7.6797 c 2.633,-0.7657 5.949,-1.3672 9.188,-1.3672 4.961,0 8.379,2.1328 8.379,5.6367 0,8.5352 -18.586,3.4102 -18.586,18.0898 0,7.3438 5.949,13.1485 17.476,13.1485 2.473,0 5.36,-0.3399 7.91,-0.7656 l -0.254,-7.4336 c -2.554,0.7734 -5.527,1.1992 -8.257,1.1992 -5.047,0 -7.524,-2.0508 -7.524,-5.293 0,-8.1953 18.754,-4.0078 18.754,-18.0898 0,-7.9219 -7.055,-13.6485 -18.414,-13.6485"
             inkscape:connector-curvature="0" />
          <path
             id="path3838"
             style="fill:#ffffff;fill-opacity:1;fill-rule:nonzero;stroke:none"
             d="m 249.746,71.4063 0,-16.875 19.547,0 0,-7.5 -19.547,0 0,-25.1446 -9.219,0 0,57.3321 29.871,0 0,-7.8125 -20.652,0"
             inkscape:connector-curvature="0" />
          <path
             id="path3840"
             style="fill:#ffffff;fill-opacity:1;fill-rule:nonzero;stroke:none"
             d="m 304.871,48.8906 -17.812,0 c 0.761,5.6719 4.308,9.3946 9.371,9.3946 5.316,0 8.613,-3.6368 8.441,-9.3946 z m 9.063,-2.1211 C 313.934,56.7617 308.77,65 296.773,65 c -12.261,0 -19.23,-9.5078 -19.23,-22.2266 0,-15.082 7.227,-21.8203 20.324,-21.8203 5.149,0 10.313,0.9258 14.543,2.6953 l -0.844,7.2188 c -3.476,-1.7227 -7.957,-2.7578 -12.265,-2.7578 -8.356,0 -12.664,4.4883 -12.406,14.4062 l 26.789,0 c 0.168,1.6172 0.25,3.0586 0.25,4.2539"
             inkscape:connector-curvature="0" />
          <path
             id="path3842"
             style="fill:#ffffff;fill-opacity:1;fill-rule:nonzero;stroke:none"
             d="m 352.133,43.7344 c 0,-7.2696 -3.75,-15.3047 -10.477,-15.3047 -5.797,0 -8.441,4.7891 -8.441,13.3398 0,11.4532 4.945,15.9024 12.191,15.9024 2.211,0 4.43,-0.2617 6.727,-0.7735 l 0,-13.164 z m 9.035,-21.9375 0,62.0976 -9.035,0 0,-19.4023 c -2.297,0.1719 -4.344,0.3359 -6.391,0.3359 -13.707,0 -22.054,-9.2968 -22.054,-23.914 0,-12.3164 5.14,-19.9688 15.492,-19.9688 6.562,0 11.508,3.5703 13.808,8.7656 l 0.172,0 c -0.426,-2.3867 -0.597,-5.7031 -0.597,-7.914 l 8.605,0"
             inkscape:connector-curvature="0" />
          <path
             id="path3844"
             style="fill:#ffffff;fill-opacity:1;fill-rule:nonzero;stroke:none"
             d="m 401.094,48.8906 -17.813,0 c 0.758,5.6719 4.301,9.3946 9.371,9.3946 5.317,0 8.61,-3.6368 8.442,-9.3946 z m 9.062,-2.1211 C 410.156,56.7617 404.988,65 392.988,65 380.73,65 373.762,55.4922 373.762,42.7734 c 0,-15.082 7.222,-21.8203 20.324,-21.8203 5.148,0 10.309,0.9258 14.543,2.6953 l -0.848,7.2188 c -3.468,-1.7227 -7.957,-2.7578 -12.258,-2.7578 -8.359,0 -12.668,4.4883 -12.414,14.4062 l 26.793,0 c 0.164,1.6172 0.254,3.0586 0.254,4.2539"
             inkscape:connector-curvature="0" />
          <path
             id="path3846"
             style="fill:#ffffff;fill-opacity:1;fill-rule:nonzero;stroke:none"
             d="m 444.898,56.0938 c -8.414,1.5273 -12.496,-4.3399 -12.496,-17.0235 l 0,-17.1836 -9.062,0 0,42.2617 8.637,0 c 0,-2.3711 -0.254,-6.1015 -0.844,-9.3281 l 0.168,0 c 1.867,5.6836 6.117,10.9453 14.019,10.1797 l -0.422,-8.9062"
             inkscape:connector-curvature="0" />
          <path
             id="path3848"
             style="fill:#ffffff;fill-opacity:1;fill-rule:nonzero;stroke:none"
             d="m 476.488,40.0898 c 0,-6.0312 -4.187,-11.9804 -10.433,-11.9804 -3.59,0 -5.817,2.0429 -5.817,5.1797 0,3.6601 2.91,7.6484 16.25,7.6484 l 0,-0.8477 z m 9.317,-18.2812 c -0.164,3.5781 -0.254,7.918 -0.254,11.5703 l 0,17.25 c 0,8.7305 -3.555,14.3555 -16.504,14.3555 -5.473,0 -10.762,-1.1914 -14.922,-2.8125 l 0.848,-7.7735 c 3.566,2.2266 8.687,3.4297 12.625,3.4297 6.668,0 8.89,-2.7383 8.89,-8.0547 l 0,-2.7421 c -15.304,0 -25,-5.586 -25,-15.2696 0,-6.7187 4.59,-10.8086 11.832,-10.8086 6.758,0 12.055,3.75 14.102,8.7735 l 0.082,-0.086 c -0.336,-2.2968 -0.418,-5.1093 -0.418,-7.832 l 8.719,0"
             inkscape:connector-curvature="0" />
          <path
             id="path3850"
             style="fill:#ffffff;fill-opacity:1;fill-rule:nonzero;stroke:none"
             d="m 501.793,21.8867 9.0625,0 0,62.0078 -9.0625,0 0,-62.0078 z"
             inkscape:connector-curvature="0" />
          <path
             id="path3852"
             style="fill:#ffffff;fill-opacity:1;fill-rule:nonzero;stroke:none"
             d="m 548.109,21.8867 9.21875,0 0,57.3242 -9.21875,0 0,-57.3242 z"
             inkscape:connector-curvature="0" />
          <path
             id="path3854"
             style="fill:#ffffff;fill-opacity:1;fill-rule:nonzero;stroke:none"
             d="m 599.707,21.8867 0,27.2617 c 0,5.2852 -1.437,8.3516 -6.238,8.3516 -6.324,0 -10.965,-6.7344 -10.965,-15.1641 l 0,-20.4492 -9.063,0 0,42.2735 8.637,0 c 0,-2.1914 -0.168,-5.8164 -0.59,-8.1914 l 0.082,-0.0899 C 584.023,61.293 589.082,65 596.168,65 c 9.59,0 12.57,-5.9805 12.57,-13.4687 l 0,-29.6446 -9.031,0"
             inkscape:connector-curvature="0" />
          <path
             id="path3856"
             style="fill:#ffffff;fill-opacity:1;fill-rule:nonzero;stroke:none"
             d="m 631.758,20.9531 c -3.145,0 -6.293,0.336 -8.926,0.8438 l 0.254,7.6797 c 2.637,-0.7657 5.953,-1.3672 9.184,-1.3672 4.96,0 8.382,2.1328 8.382,5.6367 0,8.5352 -18.586,3.4102 -18.586,18.0898 0,7.3438 5.95,13.1485 17.473,13.1485 2.473,0 5.363,-0.3399 7.91,-0.7656 l -0.254,-7.4336 c -2.547,0.7734 -5.519,1.1992 -8.254,1.1992 -5.046,0 -7.527,-2.0508 -7.527,-5.293 0,-8.1953 18.758,-4.0078 18.758,-18.0898 0,-7.9219 -7.051,-13.6485 -18.414,-13.6485"
             inkscape:connector-curvature="0" />
          <path
             id="path3858"
             style="fill:#ffffff;fill-opacity:1;fill-rule:nonzero;stroke:none"
             d="m 676.785,21.1094 c -8.988,0 -11.695,3.5039 -11.695,12.9531 l 0,22.9688 -8.078,0 0,7.0312 8.078,0 0,13.4609 8.976,2.4649 0,-15.9258 11.133,0 0,-7.0312 -11.051,0 0,-20.1719 c 0,-6.2735 1.278,-7.9688 5.532,-7.9688 1.867,0 3.91,0.2539 5.519,0.6797 l 0,-7.5195 c -2.461,-0.5117 -5.609,-0.9414 -8.414,-0.9414"
             inkscape:connector-curvature="0" />
          <path
             id="path3860"
             style="fill:#ffffff;fill-opacity:1;fill-rule:nonzero;stroke:none"
             d="m 702.367,70.4805 c -3.219,0 -5.847,2.5468 -5.847,5.6914 0,3.1445 2.628,5.6992 5.847,5.6992 3.137,0 5.762,-2.4688 5.762,-5.6992 0,-3.1446 -2.625,-5.6914 -5.762,-5.6914 z m -4.574,-48.5938 0,42.293 9.062,0 0,-42.293 -9.062,0"
             inkscape:connector-curvature="0" />
          <path
             id="path3862"
             style="fill:#ffffff;fill-opacity:1;fill-rule:nonzero;stroke:none"
             d="m 736.285,21.1094 c -8.988,0 -11.699,3.5039 -11.699,12.9531 l 0,22.9688 -8.078,0 0,7.0312 8.078,0 0,13.4609 8.977,2.4649 0,-15.9258 11.132,0 0,-7.0312 -11.047,0 0,-20.1719 c 0,-6.2735 1.274,-7.9688 5.528,-7.9688 1.871,0 3.91,0.2539 5.519,0.6797 l 0,-7.5195 c -2.461,-0.5117 -5.609,-0.9414 -8.41,-0.9414"
             inkscape:connector-curvature="0" />
          <path
             id="path3864"
             style="fill:#ffffff;fill-opacity:1;fill-rule:nonzero;stroke:none"
             d="m 783.965,21.7813 c 0,2.1875 0.172,5.8164 0.59,8.1914 l -0.082,0.0859 c -2.465,-5.4102 -7.571,-9.1211 -14.715,-9.1211 -9.625,0 -12.61,5.9805 -12.61,13.4648 l 0,29.6524 9.036,0 0,-27.2695 c 0,-5.2813 1.449,-8.3477 6.296,-8.3477 6.383,0 11.059,6.7344 11.059,15.1719 l 0,20.4453 9.063,0 0,-42.2734 -8.637,0"
             inkscape:connector-curvature="0" />
          <path
             id="path3866"
             style="fill:#ffffff;fill-opacity:1;fill-rule:nonzero;stroke:none"
             d="m 822.133,21.1094 c -8.988,0 -11.699,3.5039 -11.699,12.9531 l 0,22.9688 -8.075,0 0,7.0312 8.075,0 0,13.4609 8.98,2.4649 0,-15.9258 11.133,0 0,-7.0312 -11.051,0 0,-20.1719 c 0,-6.2735 1.274,-7.9688 5.527,-7.9688 1.872,0 3.907,0.2539 5.524,0.6797 l 0,-7.5195 c -2.465,-0.5117 -5.609,-0.9414 -8.414,-0.9414"
             inkscape:connector-curvature="0" />
          <path
             id="path3868"
             style="fill:#ffffff;fill-opacity:1;fill-rule:nonzero;stroke:none"
             d="m 867.047,48.8906 -17.813,0 c 0.762,5.6719 4.305,9.3946 9.368,9.3946 5.32,0 8.617,-3.6368 8.445,-9.3946 z m 9.062,-2.1211 c 0,9.9922 -5.168,18.2305 -17.168,18.2305 -12.257,0 -19.222,-9.5078 -19.222,-22.2266 0,-15.082 7.219,-21.8203 20.32,-21.8203 5.152,0 10.309,0.9258 14.547,2.6953 l -0.852,7.2188 c -3.468,-1.7227 -7.953,-2.7578 -12.257,-2.7578 -8.364,0 -12.668,4.4883 -12.411,14.4062 l 26.789,0 c 0.168,1.6172 0.254,3.0586 0.254,4.2539"
             inkscape:connector-curvature="0" />
          <path
             id="path3870"
             style="fill:#ffffff;fill-opacity:1;fill-rule:nonzero;stroke:none"
             d="m 937.898,43.2539 c 0,-9.8711 -4.925,-14.5039 -10.789,-14.5039 -7.046,0 -10.785,5.0625 -10.785,14.6797 0,9.7773 5.352,14.0703 10.871,14.0703 7.219,0 10.703,-5.1523 10.703,-14.2461 z m 9.352,0.6016 C 947.25,58.832 939.258,65 927.961,65 c -12.82,0 -21.012,-9.6445 -21.012,-22.5195 0,-15.0039 7.602,-21.543 19.313,-21.543 12.488,0 20.988,9.7852 20.988,22.918"
             inkscape:connector-curvature="0" />
          <path
             id="path3872"
             style="fill:#ffffff;fill-opacity:1;fill-rule:nonzero;stroke:none"
             d="m 984.941,76.3281 c -1.871,0.6016 -3.91,0.8594 -5.781,0.8594 -5.437,0 -7.906,-3.0039 -7.906,-9.6914 l 0,-3.4336 10.969,0 0,-7.0312 -10.969,0 0,-35.1446 -9.031,0 0,35.1446 -8.078,0 0,7.0312 8.078,0 0,3.2617 c 0,11.6367 5.535,17.2071 16.511,17.2071 2.379,0 4.672,-0.254 6.887,-0.7618 l -0.68,-7.4414"
             inkscape:connector-curvature="0" />
          <path
             id="path3874"
             style="fill:#ffffff;fill-opacity:1;fill-rule:nonzero;stroke:none"
             d="m 1030.68,71.4063 0,-49.5196 -9.22,0 0,49.5196 -15.72,0 0,7.8125 40.75,0 0,-7.8125 -15.81,0"
             inkscape:connector-curvature="0" />
          <path
             id="path3876"
             style="fill:#ffffff;fill-opacity:1;fill-rule:nonzero;stroke:none"
             d="m 1082.79,42.5156 -26.79,0 c -0.25,-9.9179 4.05,-14.4062 12.41,-14.4062 4.3,0 8.79,1.0351 12.27,2.7578 l 0.84,-7.2188 c -4.23,-1.7695 -9.39,-2.6953 -14.54,-2.6953 -13.1,0 -20.33,6.7383 -20.33,21.8203 0,12.7188 6.98,22.2266 19.23,22.2266 12,0 17.17,-8.2383 17.17,-18.2305 0,-1.1953 -0.09,-2.6367 -0.26,-4.2539 z m -17.25,15.7696 c -5.07,0 -8.61,-3.7227 -9.37,-9.3946 l 17.81,0 c 0.17,5.7578 -3.12,9.3946 -8.44,9.3946"
             inkscape:connector-curvature="0" />
          <path
             id="path3878"
             style="fill:#ffffff;fill-opacity:1;fill-rule:nonzero;stroke:none"
             d="m 1111.58,21.0938 c -10.88,0 -18.78,5.3515 -18.78,20.4882 0,13.5352 6.88,23.2618 21.42,23.2618 3.14,0 6.37,-0.418 9.18,-1.2657 l -0.94,-7.8593 c -2.55,0.9414 -5.44,1.625 -8.5,1.625 -7.73,0 -11.64,-5.7383 -11.64,-14.7305 0,-7.793 2.8,-13.707 11.22,-13.707 3.23,0 6.71,0.7734 9.18,2.0546 l 0.76,-7.7421 c -2.8,-1.1055 -7.22,-2.125 -11.9,-2.125"
             inkscape:connector-curvature="0" />
          <path
             id="path3880"
             style="fill:#ffffff;fill-opacity:1;fill-rule:nonzero;stroke:none"
             d="m 1161.85,21.8867 0,27.2617 c 0,5.2852 -1.44,8.3516 -6.24,8.3516 -6.32,0 -10.96,-6.7344 -10.96,-15.2539 l 0,-20.3594 -9.06,0 0,62.0078 9.06,0 0,-19.0586 c 0,-2.6132 -0.17,-6.1523 -0.76,-8.4453 l 0.16,-0.082 c 2.45,5.2383 7.43,8.6914 14.25,8.6914 9.6,0 12.58,-5.9805 12.58,-13.4687 l 0,-29.6446 -9.03,0"
             inkscape:connector-curvature="0" />
          <path
             id="path3882"
             style="fill:#ffffff;fill-opacity:1;fill-rule:nonzero;stroke:none"
             d="m 1213.28,21.8867 0,27.2617 c 0,5.2852 -1.44,8.3516 -6.24,8.3516 -6.33,0 -10.97,-6.7344 -10.97,-15.1641 l 0,-20.4492 -9.06,0 0,42.2735 8.64,0 c 0,-2.1914 -0.17,-5.8164 -0.6,-8.1914 l 0.09,-0.0899 c 2.45,5.4141 7.51,9.1211 14.59,9.1211 9.59,0 12.58,-5.9805 12.58,-13.4687 l 0,-29.6446 -9.03,0"
             inkscape:connector-curvature="0" />
          <path
             id="path3884"
             style="fill:#ffffff;fill-opacity:1;fill-rule:nonzero;stroke:none"
             d="m 1265.79,43.2539 c 0,-9.8711 -4.93,-14.5039 -10.79,-14.5039 -7.05,0 -10.79,5.0625 -10.79,14.6797 0,9.7773 5.36,14.0703 10.88,14.0703 7.22,0 10.7,-5.1523 10.7,-14.2461 z m 9.35,0.6016 c 0,14.9765 -7.99,21.1445 -19.28,21.1445 -12.83,0 -21.02,-9.6445 -21.02,-22.5195 0,-15.0039 7.6,-21.543 19.32,-21.543 12.48,0 20.98,9.7852 20.98,22.918"
             inkscape:connector-curvature="0" />
          <path
             id="path3886"
             style="fill:#ffffff;fill-opacity:1;fill-rule:nonzero;stroke:none"
             d="m 1287.82,21.8867 9.0625,0 0,62.0078 -9.0625,0 0,-62.0078 z"
             inkscape:connector-curvature="0" />
          <path
             id="path3888"
             style="fill:#ffffff;fill-opacity:1;fill-rule:nonzero;stroke:none"
             d="m 1340.25,43.2539 c 0,-9.8711 -4.93,-14.5039 -10.79,-14.5039 -7.05,0 -10.79,5.0625 -10.79,14.6797 0,9.7773 5.35,14.0703 10.88,14.0703 7.22,0 10.7,-5.1523 10.7,-14.2461 z m 9.35,0.6016 C 1349.6,58.832 1341.61,65 1330.31,65 c -12.82,0 -21.01,-9.6445 -21.01,-22.5195 0,-15.0039 7.6,-21.543 19.31,-21.543 12.49,0 20.99,9.7852 20.99,22.918"
             inkscape:connector-curvature="0" />
          <path
             id="path3890"
             style="fill:#ffffff;fill-opacity:1;fill-rule:nonzero;stroke:none"
             d="m 1387.74,49.2578 c 0,-5.5078 -3.72,-8.6484 -9.4,-8.6484 -6.11,0 -9.5,3.2226 -9.5,8.7383 0,5.1679 3.56,8.8203 9.58,8.8203 5.85,0 9.32,-3.3125 9.32,-8.9102 z m 11.73,-33.0234 c 0,7.8984 -5.18,12.2031 -14.35,12.2031 l -7.21,0 c -5.09,0 -6.95,0.8633 -6.95,3.0273 0,1.211 0.76,2.5118 2.46,3.1915 1.27,-0.254 3.22,-0.4219 4.83,-0.4219 11.88,0 18.24,6.4648 18.24,15.6211 0,3.0508 -1.1,5.5937 -2.88,7.0351 l 6.46,0 0,7.1563 -14.27,0 c -2.29,0.5156 -4.41,0.8515 -6.96,0.8515 -12.03,0 -18.82,-7.4961 -18.82,-16.4023 0,-5.2539 2.12,-9.5859 6.28,-11.8789 -2.97,-1.2734 -4.84,-4.1992 -4.84,-7.3164 0,-2.8008 1.61,-5 4.16,-6.2656 -3.64,-1.8594 -6.78,-5.8633 -6.78,-10.6329 C 1358.84,4.23828 1365.7,0 1376.72,0 c 13.57,0 22.75,7.20313 22.75,16.2344 z m -9.01,-1.1914 c 0,-4.6055 -4.41,-8.01175 -12.3,-8.01175 -6.1,0 -10.34,2.55859 -10.34,7.07425 0,2.8984 1.79,5.457 4.66,7.0703 0.68,-0.082 1.53,-0.082 2.29,-0.082 l 7.89,0 c 5.34,0 7.8,-2.3868 7.8,-6.0508"
             inkscape:connector-curvature="0" />
          <path
             id="path3892"
             style="fill:#ffffff;fill-opacity:1;fill-rule:nonzero;stroke:none"
             d="m 1430.03,17.6016 c -4.93,-13.13285 -9.1,-17.13285 -18.62,-17.13285 -1.71,0 -4,0.25 -5.7,0.58594 l 0.68,7.85156 c 1.87,-0.68359 3.57,-0.9375 5.52,-0.9375 4.26,0 6.64,1.96484 9.28,9.21095 l 1.7,4.5156 -15.82,42.3594 10.2,0 6.89,-19.3477 c 1.36,-3.75 2.38,-7.5 3.32,-11.0781 l 0.08,0 c 0.85,3.4063 2.64,8.8594 4.17,13.2109 l 6.04,17.2149 9.78,0 -17.52,-46.4531"
             inkscape:connector-curvature="0" />
          <path
             id="path3894"
             style="fill:#ffffff;fill-opacity:1;fill-rule:nonzero;stroke:none"
             d="m 1476,21.875 0,7.0039 22.59,35.9492 c 1.35,2.211 2.71,4.1641 4.24,6.211 -2.46,-0.086 -5.78,-0.086 -11.63,-0.086 l -14.35,0 0,8.25 36.93,0 0,-7.3125 L 1490,34.7344 c -0.93,-1.6133 -1.86,-2.9766 -2.96,-4.5899 1.52,0.168 6.11,0.168 13.41,0.168 l 13.67,0 0,-8.4375 -38.12,0"
             inkscape:connector-curvature="0" />
          <path
             id="path3896"
             style="fill:#ffffff;fill-opacity:1;fill-rule:nonzero;stroke:none"
             d="m 1552.56,21.7813 c 0,2.1875 0.17,5.8164 0.59,8.1914 l -0.08,0.0859 c -2.46,-5.4102 -7.57,-9.1211 -14.71,-9.1211 -9.63,0 -12.61,5.9805 -12.61,13.4648 l 0,29.6524 9.03,0 0,-27.2695 c 0,-5.2813 1.45,-8.3477 6.3,-8.3477 6.38,0 11.06,6.7344 11.06,15.1719 l 0,20.4453 9.06,0 0,-42.2734 -8.64,0"
             inkscape:connector-curvature="0" />
          <path
             id="path3898"
             style="fill:#ffffff;fill-opacity:1;fill-rule:nonzero;stroke:none"
             d="m 1598.87,56.0938 c -8.42,1.5273 -12.49,-4.3399 -12.49,-17.0235 l 0,-17.1836 -9.07,0 0,42.2617 8.64,0 c 0,-2.3711 -0.25,-6.1015 -0.84,-9.3281 l 0.16,0 c 1.87,5.6836 6.12,10.9453 14.03,10.1797 l -0.43,-8.9062"
             inkscape:connector-curvature="0" />
          <path
             id="path3900"
             style="fill:#ffffff;fill-opacity:1;fill-rule:nonzero;stroke:none"
             d="m 1620.55,76.1719 c 0,3.2304 -2.64,5.6992 -5.77,5.6992 -3.22,0 -5.85,-2.5547 -5.85,-5.6992 0,-3.1446 2.63,-5.6914 5.85,-5.6914 3.13,0 5.77,2.5468 5.77,5.6914 z m -1.28,-54.2852 0,42.293 -9.06,0 0,-42.293 9.06,0"
             inkscape:connector-curvature="0" />
          <path
             id="path3902"
             style="fill:#ffffff;fill-opacity:1;fill-rule:nonzero;stroke:none"
             d="m 1650.64,21.0938 c -10.88,0 -18.79,5.3515 -18.79,20.4882 0,13.5352 6.88,23.2618 21.42,23.2618 3.15,0 6.37,-0.418 9.18,-1.2657 l -0.93,-7.8593 c -2.56,0.9414 -5.45,1.625 -8.51,1.625 -7.73,0 -11.64,-5.7383 -11.64,-14.7305 0,-7.793 2.81,-13.707 11.22,-13.707 3.23,0 6.72,0.7734 9.18,2.0546 l 0.77,-7.7421 c -2.81,-1.1055 -7.23,-2.125 -11.9,-2.125"
             inkscape:connector-curvature="0" />
          <path
             id="path3904"
             style="fill:#ffffff;fill-opacity:1;fill-rule:nonzero;stroke:none"
             d="m 1700.9,21.8867 0,27.2617 c 0,5.2852 -1.43,8.3516 -6.24,8.3516 -6.32,0 -10.96,-6.7344 -10.96,-15.2539 l 0,-20.3594 -9.07,0 0,62.0078 9.07,0 0,-19.0586 c 0,-2.6132 -0.17,-6.1523 -0.77,-8.4453 l 0.18,-0.082 c 2.44,5.2383 7.42,8.6914 14.25,8.6914 9.59,0 12.58,-5.9805 12.58,-13.4687 l 0,-29.6446 -9.04,0"
             inkscape:connector-curvature="0" />
        </g>
      </g>
      <path
         style="fill:#ffffff;fill-opacity:1;stroke:#ffffff;stroke-width:9.62243557;stroke-linecap:butt;stroke-linejoin:miter;stroke-miterlimit:4;stroke-opacity:1;stroke-dasharray:none"
         d="m 2975.11,-2850.0689 -2970.2987822,0"
         id="path4034"
         inkscape:connector-curvature="0"
         sodipodi:nodetypes="cc" />
      <path
         sodipodi:nodetypes="cc"
         inkscape:connector-curvature="0"
         id="path4804"
         d="m 2975.1101,-2424.8721 -2970.2988822,0"
         style="fill:#ffffff;fill-opacity:1;stroke:#ffffff;stroke-width:9.62243557;stroke-linecap:butt;stroke-linejoin:miter;stroke-miterlimit:4;stroke-opacity:1;stroke-dasharray:none" />
    </g>
    <g
       inkscape:groupmode="layer"
       id="layer4"
       inkscape:label="Content"
       style="display:inline">
      <rect
         style="fill:url(#pattern5847);stroke:none"
         width="921.25983"
         height="657.98401"
         x="318.89764"
         y="-2035.3679"
         id="rect5845" />
      <rect
         style="fill:url(#pattern5931);stroke:none"
         width="921.25983"
         height="657.98401"
         x="1736.2205"
         y="-2030.2971"
         id="rect5862" />
      <rect
         style="fill:url(#pattern5933);stroke:none"
         width="921.25983"
         height="657.98401"
         x="1736.2205"
         y="-1073.6041"
         id="rect5884" />
      <rect
         style="fill:url(#pattern5935);stroke:none"
         width="921.25983"
         height="657.98401"
         x="318.89764"
         y="-1073.6041"
         id="rect5899" />
      <rect
         style="fill:url(#pattern5937);stroke:none"
         width="921.25983"
         height="657.98401"
         x="318.89764"
         y="-116.91125"
         id="rect5914" />
      <rect
         style="fill:url(#pattern5939);stroke:none"
         width="921.25983"
         height="657.98401"
         x="1736.2205"
         y="-116.91125"
         id="rect5929" />
      <path
         style="fill:#ffffff;fill-rule:nonzero;stroke:#000000;stroke-width:35.43307114;stroke-linecap:butt;stroke-linejoin:miter;stroke-miterlimit:1.70000005;stroke-opacity:1;stroke-dasharray:106.2992126, 35.43307087;stroke-dashoffset:0;marker-start:none;marker-end:url(#Arrow2Mend)"
         d="m 1222.4409,-1711.3994 478.3465,0"
         id="path5941"
         inkscape:connector-curvature="0"
         sodipodi:nodetypes="cc" />
      <path
         sodipodi:nodetypes="cc"
         inkscape:connector-curvature="0"
         id="path9033"
         d="m 1222.4409,201.98639 478.3465,0"
         style="fill:#ffffff;fill-rule:nonzero;stroke:#000000;stroke-width:35.43307114;stroke-linecap:butt;stroke-linejoin:miter;stroke-miterlimit:1.70000005;stroke-opacity:1;stroke-dasharray:106.2992126, 35.43307087;stroke-dashoffset:0;marker-start:none;marker-end:url(#Arrow2Mend)" />
      <path
         style="fill:#ffffff;fill-rule:nonzero;stroke:#000000;stroke-width:35.43307114;stroke-linecap:butt;stroke-linejoin:miter;stroke-miterlimit:1.70000005;stroke-opacity:1;stroke-dasharray:106.2992126, 35.43307087;stroke-dashoffset:0;marker-start:none;marker-end:url(#Arrow2Mend)"
         d="m 1753.937,-754.70653 -478.3464,0"
         id="path9035"
         inkscape:connector-curvature="0"
         sodipodi:nodetypes="cc" />
      <path
         sodipodi:nodetypes="cc"
         inkscape:connector-curvature="0"
         id="path9037"
         d="m 2232.2835,-1392.5018 0,265.748"
         style="fill:#ffffff;fill-rule:nonzero;stroke:#000000;stroke-width:35.43307114;stroke-linecap:butt;stroke-linejoin:miter;stroke-miterlimit:1.70000005;stroke-opacity:1;stroke-dasharray:106.2992126, 35.43307087;stroke-dashoffset:0;marker-start:none;marker-end:url(#Arrow2Mend)" />
      <path
         sodipodi:nodetypes="cc"
         inkscape:connector-curvature="0"
         id="path9039"
         d="m 744.09449,-435.80889 0,318.89764"
         style="fill:#ffffff;fill-rule:nonzero;stroke:#000000;stroke-width:35.43307114;stroke-linecap:butt;stroke-linejoin:miter;stroke-miterlimit:1.70000005;stroke-opacity:1;stroke-dasharray:106.2992126, 35.43307087;stroke-dashoffset:0;marker-start:none;marker-end:url(#Arrow2Mend)" />
    </g>
  </g>
</svg>
